<?xml version="1.0" encoding="UTF-8"?>
<!-- Generated by Pixelmator Pro 2.4.5 -->
<svg width="1437" height="1844" viewBox="0 0 1437 1844" xmlns="http://www.w3.org/2000/svg" xmlns:xlink="http://www.w3.org/1999/xlink">
    <path id="Bottom" fill="#000000" fill-rule="evenodd" stroke="none" opacity="0.5" d="M 192 1844 L 192 1843.791016 L 101.683594 1843.791016 C 86.396431 1843.791016 74.476311 1839.515381 65.923828 1830.962891 C 57.371349 1822.4104 53.09375 1810.489868 53.09375 1795.203125 L 53.09375 1646.587891 C 53.09375 1631.218262 57.371349 1619.278931 65.923828 1610.767578 C 74.476311 1602.256226 86.396431 1598 101.683594 1598 L 192 1598 L 250.296875 1598 L 1187.683594 1598 L 1313 1598 L 1336.296875 1598 C 1351.583984 1598 1363.50415 1602.256226 1372.056641 1610.767578 C 1380.609131 1619.279053 1384.886719 1631.218262 1384.886719 1646.587891 L 1384.886719 1795.203125 C 1384.886719 1810.489868 1380.609131 1822.4104 1372.056641 1830.962891 C 1363.50415 1839.515381 1351.583984 1843.791016 1336.296875 1843.791016 L 1313 1843.791016 L 1313 1844 L 192 1844 Z"/>
    <path id="Main" fill="#000000" fill-rule="evenodd" stroke="none" d="M 410 1554 C 405.577454 1554 401.171997 1553.930054 396.783203 1553.791016 L 115.429688 1553.791016 C 79.106331 1553.791016 50.78418 1543.629883 30.462891 1523.308594 C 10.141604 1502.987305 -0.019531 1474.664307 -0.019531 1438.341797 L -0.019531 1085.220703 C -0.019531 1084.339111 -0.011842 1083.463867 0 1082.591797 L 0 470.957031 C -0.011847 470.089355 -0.019531 469.21875 -0.019531 468.341797 L -0.019531 115.220703 C -0.019531 78.701294 10.1416 50.329102 30.462891 30.105469 C 50.784187 9.881348 79.106308 -0.228516 115.429688 -0.228516 L 468.550781 -0.228516 C 471.692963 -0.228516 474.774445 -0.151367 477.796875 0 L 959.183594 0 C 962.205994 -0.151367 965.287537 -0.228516 968.429688 -0.228516 L 1321.550781 -0.228516 C 1357.874268 -0.228516 1386.196167 9.881348 1406.517578 30.105469 C 1426.838989 50.329102 1437 78.701294 1437 115.220703 L 1437 410 L 1437 468.341797 L 1437 1085.220703 L 1437 1144 L 1437 1438.341797 C 1437 1439.476807 1436.990601 1440.603271 1436.970703 1441.722656 C 1436.970703 1441.722656 1436.970703 1441.724609 1436.970703 1441.724609 C 1436.93103 1443.962891 1436.85144 1446.169922 1436.732422 1448.345703 C 1436.732422 1448.345703 1436.732422 1448.347656 1436.732422 1448.347656 C 1436.375122 1454.876221 1435.659424 1461.123779 1434.587891 1467.089844 C 1434.409302 1468.084229 1434.221924 1469.072021 1434.023438 1470.050781 C 1432.733521 1476.413208 1431.024902 1482.444336 1428.896484 1488.146484 C 1428.896484 1488.146484 1428.896484 1488.148438 1428.896484 1488.148438 C 1428.241821 1489.902344 1427.546509 1491.625 1426.8125 1493.316406 C 1426.8125 1493.316406 1426.8125 1493.318359 1426.8125 1493.318359 C 1426.62915 1493.740845 1426.442139 1494.161499 1426.253906 1494.580078 C 1425.688354 1495.837402 1425.100464 1497.07666 1424.490234 1498.298828 C 1423.676636 1499.928345 1422.822754 1501.526733 1421.929688 1503.09375 C 1421.483154 1503.877197 1421.026855 1504.654053 1420.560547 1505.421875 C 1420.327393 1505.805786 1420.091675 1506.186401 1419.853516 1506.566406 C 1419.853516 1506.566406 1419.853516 1506.568359 1419.853516 1506.568359 C 1419.377197 1507.328369 1418.890625 1508.079834 1418.394531 1508.824219 C 1417.898682 1509.568237 1417.392578 1510.30481 1416.876953 1511.033203 C 1416.876953 1511.033203 1416.876953 1511.035156 1416.876953 1511.035156 C 1415.071289 1513.585449 1413.142456 1516.039429 1411.09375 1518.398438 C 1411.09375 1518.398438 1411.09375 1518.400391 1411.09375 1518.400391 C 1409.630493 1520.085205 1408.104858 1521.721313 1406.517578 1523.308594 C 1404.930298 1524.895874 1403.294312 1526.421509 1401.609375 1527.884766 C 1401.609375 1527.884766 1401.607422 1527.884766 1401.607422 1527.884766 C 1399.248413 1529.933472 1396.794434 1531.862305 1394.244141 1533.667969 C 1394.244141 1533.667969 1394.242188 1533.667969 1394.242188 1533.667969 C 1393.513794 1534.183594 1392.777222 1534.689697 1392.033203 1535.185547 C 1391.288818 1535.681641 1390.537354 1536.168213 1389.777344 1536.644531 C 1388.637695 1537.358643 1387.47937 1538.051147 1386.304688 1538.720703 C 1386.304688 1538.720703 1386.302734 1538.720703 1386.302734 1538.720703 C 1384.736206 1539.613525 1383.138672 1540.467773 1381.509766 1541.28125 C 1381.509766 1541.28125 1381.507813 1541.28125 1381.507813 1541.28125 C 1380.286255 1541.891235 1379.045776 1542.479614 1377.789063 1543.044922 C 1374.43689 1544.552979 1370.959595 1545.903198 1367.357422 1547.09375 C 1367.357422 1547.09375 1367.355469 1547.09375 1367.355469 1547.09375 C 1366.455322 1547.391235 1365.546631 1547.679443 1364.630859 1547.957031 C 1363.715088 1548.234619 1362.790649 1548.501953 1361.859375 1548.759766 C 1361.859375 1548.759766 1361.857422 1548.759766 1361.857422 1548.759766 C 1361.391479 1548.888794 1360.924927 1549.016602 1360.455078 1549.140625 C 1348.708008 1552.241455 1335.739624 1553.791016 1321.550781 1553.791016 L 1040.216797 1553.791016 C 1035.828003 1553.930054 1031.422607 1554 1027 1554 L 410 1554 Z M 203.5 1322 L 289.5 1322 C 306.89682 1322 321 1307.896851 321 1290.5 C 321 1273.103149 306.89682 1259 289.5 1259 L 203.5 1259 C 186.103165 1259 172 1273.103149 172 1290.5 C 172 1307.896851 186.103165 1322 203.5 1322 Z M 922.5 1322 L 1233.5 1322 C 1250.896851 1322 1265 1307.896851 1265 1290.5 C 1265 1273.103149 1250.896851 1259 1233.5 1259 L 922.5 1259 C 905.103149 1259 891 1273.103149 891 1290.5 C 891 1307.896851 905.103149 1322 922.5 1322 Z M 366 1041 L 1071 1041 C 1074.041016 1041 1077.06543 1040.929443 1080.072266 1040.791016 L 1200.556641 1040.791016 C 1220.832397 1040.791016 1236.640991 1035.118774 1247.984375 1023.775391 C 1259.327759 1012.432007 1265 996.622925 1265 976.347656 L 1265 847 L 1265 779.234375 L 1265 426.347656 L 1265 359 L 1265 229.234375 C 1265 208.849121 1259.327759 193.01355 1247.984375 181.724609 C 1236.640991 170.435669 1220.832397 164.791016 1200.556641 164.791016 L 1003.443359 164.791016 C 1001.194824 164.791016 999.001953 164.861206 996.863281 165 L 440.423828 165 C 438.193054 164.848267 435.903564 164.771484 433.552734 164.771484 L 236.427734 164.771484 C 216.150742 164.771484 200.340103 170.415405 188.996094 181.705078 C 177.652084 192.994629 171.980469 208.832275 171.980469 229.21875 L 171.980469 426.34375 C 171.980469 427.009155 171.987793 427.668457 172 428.324219 L 172 777.226563 C 171.987793 777.885742 171.980469 778.549805 171.980469 779.21875 L 171.980469 976.34375 C 171.980469 996.620239 177.652084 1012.431396 188.996094 1023.775391 C 200.340103 1035.119385 216.150803 1040.791016 236.427734 1040.791016 L 356.927734 1040.791016 C 359.93457 1040.929443 362.958923 1041 366 1041 Z"/>
    <path id="Face" fill="#000000" fill-rule="evenodd" stroke="none" d="M 505.827454 526.379028 C 518.906555 526.379028 529.64978 522.175049 538.057739 513.76709 C 546.465637 505.359253 550.669617 494.428955 550.669617 480.976196 L 550.669617 404.744751 C 550.669617 391.29187 546.465637 380.361938 538.057739 371.953979 C 529.64978 363.546021 518.906555 359.342163 505.827454 359.342163 C 492.748413 359.342163 482.005188 363.546021 473.597229 371.953979 C 465.189331 380.361938 460.985352 391.29187 460.985352 404.744751 L 460.985352 480.976196 C 460.985352 494.428955 465.189331 505.359253 473.597229 513.76709 C 482.005188 522.175049 492.748413 526.379028 505.827454 526.379028 Z M 673.985352 658.663208 C 674.732788 658.663208 675.573608 658.663208 676.50769 658.663208 C 677.442017 658.663208 678.282837 658.663208 679.030151 658.663208 C 707.430298 658.663208 729.103638 651.189453 744.051147 636.242065 C 758.998535 621.294556 766.47229 599.621216 766.47229 571.221069 L 766.47229 394.655151 C 766.47229 383.818359 763.202515 375.130127 756.662964 368.590698 C 750.123535 362.05127 741.248657 358.781494 730.038086 358.781494 C 719.201172 358.781494 710.419556 362.05127 703.693237 368.590698 C 696.966919 375.130127 693.60376 383.818359 693.60376 394.655151 L 693.60376 576.265625 C 693.60376 579.255127 692.856445 581.404053 691.361694 582.711914 C 689.866943 584.019775 687.811768 584.673584 685.195923 584.673584 L 665.577515 584.673584 C 655.487915 584.673584 646.986694 588.130249 640.073486 595.043457 C 633.1604 601.956665 629.703735 610.457764 629.703735 620.547241 C 629.703735 632.505371 633.627441 641.847412 641.474854 648.57373 C 649.322266 655.299927 660.158936 658.663208 673.985352 658.663208 Z M 930.706421 526.379028 C 943.7854 526.379028 954.528687 522.175049 962.936768 513.76709 C 971.344727 505.359253 975.548462 494.428955 975.548462 480.976196 L 975.548462 404.744751 C 975.548462 391.29187 971.344727 380.361938 962.936768 371.953979 C 954.528687 363.546021 943.7854 359.342163 930.706421 359.342163 C 917.627441 359.342163 906.884033 363.546021 898.476196 371.953979 C 890.068237 380.361938 885.864258 391.29187 885.864258 404.744751 L 885.864258 480.976196 C 885.864258 494.428955 890.068237 505.359253 898.476196 513.76709 C 906.884033 522.175049 917.627441 526.379028 930.706421 526.379028 Z M 716.024902 847 C 749.656616 847 782.727295 840.180298 815.238037 826.540771 C 847.748657 812.901123 876.335205 793.750122 900.998535 769.08667 C 904.361694 765.723633 906.884033 761.800049 908.565552 757.315796 C 910.247192 752.831543 911.088013 747.786865 911.088013 742.181519 C 911.088013 731.718262 907.537964 723.030273 900.437988 716.117065 C 893.337891 709.203979 884.743286 705.747192 874.653809 705.747192 C 864.564331 705.747192 854.848633 710.79187 845.50647 720.88147 C 830.185303 736.950073 811.03418 749.935425 788.05249 759.838135 C 765.070801 769.740723 741.06189 774.692017 716.024902 774.692017 C 692.482666 774.692017 669.127563 769.834229 645.959106 760.118408 C 622.790527 750.402588 603.172241 737.32373 587.103821 720.88147 C 582.619507 716.770874 578.228821 713.221069 573.931396 710.231567 C 569.634033 707.241943 564.122314 705.747192 557.395874 705.747192 C 546.932678 705.747192 538.151123 709.203979 531.051086 716.117065 C 523.95105 723.030273 520.401184 731.718262 520.401184 742.181519 C 520.401184 747.039551 521.335327 751.617065 523.203796 755.914429 C 525.072205 760.211792 527.874817 764.415771 531.611755 768.526367 C 554.032837 794.310669 581.872009 813.835449 615.130127 827.101196 C 648.388184 840.367188 682.019409 847 716.024902 847 Z"/>
</svg>
