<?xml version="1.0" encoding="UTF-8"?>
<!-- Generated by Pixelmator Pro 2.4.5 -->
<svg width="300" height="300" viewBox="0 0 300 300" xmlns="http://www.w3.org/2000/svg" xmlns:xlink="http://www.w3.org/1999/xlink">
    <path id="Rectangle" fill="#ea99d1" fill-rule="evenodd" stroke="none" opacity="0.3" d="M 0 300 L 300 300 L 300 0 L 0 0 Z"/>
    <g id="Happy-Mac-SF-Symbol">
        <path id="Bottom" fill="#ea99d1" fill-rule="evenodd" stroke="none" opacity="0.5" d="M 100.101563 237 L 100.101563 236.980469 L 91.630859 236.980469 C 90.196831 236.980469 89.077667 236.57962 88.275391 235.777344 C 87.473114 234.975067 87.072266 233.855865 87.072266 232.421875 L 87.072266 218.482422 C 87.072266 217.040649 87.473114 215.919525 88.275391 215.121094 C 89.077667 214.322662 90.196831 213.923828 91.630859 213.923828 L 100.101563 213.923828 L 105.570313 213.923828 L 193.503906 213.923828 L 205.259766 213.923828 L 207.445313 213.923828 C 208.879333 213.923828 209.996552 214.322662 210.798828 215.121094 C 211.601105 215.919525 212.001953 217.040649 212.001953 218.482422 L 212.001953 232.421875 C 212.001953 233.855865 211.601105 234.975067 210.798828 235.777344 C 209.996552 236.57962 208.879333 236.980469 207.445313 236.980469 L 205.259766 236.980469 L 205.259766 237 L 100.101563 237 Z"/>
        <path id="Main" fill="#ea99d1" fill-rule="evenodd" stroke="none" d="M 120.552734 209.796875 C 120.168266 209.796875 119.784096 209.788544 119.402344 209.777344 L 92.919922 209.777344 C 89.512543 209.777344 86.855492 208.824249 84.949219 206.917969 C 83.042946 205.011688 82.089844 202.354553 82.089844 198.947266 L 82.089844 165.822266 C 82.089844 165.786575 82.091591 165.752319 82.091797 165.716797 L 82.091797 108.060547 C 82.091591 108.025101 82.089844 107.990677 82.089844 107.955078 L 82.089844 74.830078 C 82.089844 71.404343 83.042946 68.742798 84.949219 66.845703 C 86.855499 64.948547 89.512543 64 92.919922 64 L 126.044922 64 C 126.32048 64 126.589729 64.009079 126.855469 64.021484 L 172.125 64.021484 C 172.390747 64.009079 172.659988 64 172.935547 64 L 206.060547 64 C 209.467926 64 212.124969 64.948547 214.03125 66.845703 C 215.937515 68.742798 216.890625 71.404343 216.890625 74.830078 L 216.890625 102.482422 L 216.890625 107.955078 L 216.890625 165.822266 L 216.890625 171.335938 L 216.890625 198.947266 C 216.890625 201.289764 216.440079 203.277084 215.539063 204.910156 C 215.129517 205.652496 214.626953 206.322266 214.03125 206.917969 C 213.792969 207.15625 213.542999 207.379395 213.28125 207.587891 C 213.149673 207.692703 213.016403 207.793335 212.878906 207.890625 C 212.656219 208.048279 212.423782 208.192169 212.185547 208.330078 C 211.984924 208.446198 211.781967 208.558044 211.570313 208.660156 C 211.261658 208.809082 210.941498 208.943359 210.609375 209.0625 C 210.277252 209.181641 209.933701 209.285645 209.578125 209.375 C 209.400345 209.419678 209.218796 209.460815 209.035156 209.498047 C 208.484207 209.609741 207.906448 209.687744 207.302734 209.732422 C 206.900269 209.762207 206.486465 209.777344 206.060547 209.777344 L 179.580078 209.777344 C 179.198318 209.788544 178.814148 209.796875 178.429688 209.796875 L 120.552734 209.796875 Z M 101.181641 188.033203 L 109.248047 188.033203 C 110.879982 188.033203 112.203125 186.710052 112.203125 185.078125 C 112.203125 183.446198 110.879982 182.123047 109.248047 182.123047 L 101.181641 182.123047 C 99.549706 182.123047 98.226563 183.446198 98.226563 185.078125 C 98.226563 186.710052 99.549706 188.033203 101.181641 188.033203 Z M 168.626953 188.033203 L 197.800781 188.033203 C 199.432709 188.033203 200.755859 186.710052 200.755859 185.078125 C 200.755859 183.446198 199.432709 182.123047 197.800781 182.123047 L 168.626953 182.123047 C 166.995026 182.123047 165.671875 183.446198 165.671875 185.078125 C 165.671875 186.710052 166.995026 188.033203 168.626953 188.033203 Z M 116.423828 161.673828 L 182.558594 161.673828 C 182.843872 161.673828 183.126144 161.667282 183.408203 161.654297 L 194.710938 161.654297 C 196.61293 161.654297 198.096069 161.122681 199.160156 160.058594 C 200.224228 158.994522 200.755859 157.511322 200.755859 155.609375 L 200.755859 143.474609 L 200.755859 137.119141 L 200.755859 104.015625 L 200.755859 97.697266 L 200.755859 85.525391 C 200.755859 83.613129 200.224228 82.12735 199.160156 81.068359 C 198.096069 80.009384 196.61293 79.480469 194.710938 79.480469 L 176.220703 79.480469 C 176.009781 79.480469 175.804123 79.486984 175.603516 79.5 L 123.40625 79.5 C 123.196991 79.485764 122.982246 79.478516 122.761719 79.478516 L 104.269531 79.478516 C 102.367424 79.478516 100.884453 80.007355 99.820313 81.066406 C 98.756172 82.125443 98.224609 83.611053 98.224609 85.523438 L 98.224609 104.015625 C 98.224609 104.078049 98.225418 104.139664 98.226563 104.201172 L 98.226563 136.929688 C 98.225418 136.991516 98.224609 137.054428 98.224609 137.117188 L 98.224609 155.609375 C 98.224609 157.511444 98.756172 158.994461 99.820313 160.058594 C 100.884453 161.122726 102.367432 161.654297 104.269531 161.654297 L 115.574219 161.654297 C 115.856285 161.667282 116.138557 161.673828 116.423828 161.673828 Z"/>
    </g>
    <path id="-copy" fill="#ea99d1" fill-rule="evenodd" stroke="none" d="M 148.450211 129.726517 C 150.731827 129.726517 151.985107 128.473236 152.467148 126.320145 C 152.884903 123.620773 153.848969 122.238937 158.123001 119.764511 C 162.654114 117.09726 165 113.787292 165 108.93483 C 165 101.44725 158.862122 96.434113 149.735626 96.434113 C 142.826492 96.434113 137.684799 99.165634 135.628128 103.407516 C 134.985413 104.628677 134.664063 105.849823 134.664063 107.231644 C 134.664063 109.67395 136.238708 111.248596 138.777405 111.248596 C 140.737671 111.248596 142.183777 110.348801 142.987167 108.292114 C 144.015503 105.432053 146.136444 103.889557 149.285721 103.889557 C 152.820633 103.889557 155.262939 106.074768 155.262939 109.224045 C 155.262939 112.180527 154.009644 113.787292 149.864166 116.261734 C 146.072174 118.47908 144.111908 120.985657 144.111908 124.777649 L 144.111908 125.227539 C 144.111908 127.862656 145.718689 129.726517 148.450211 129.726517 Z M 148.514481 144.026825 C 151.438812 144.026825 153.784698 141.809479 153.784698 138.981552 C 153.784698 136.153625 151.438812 133.936264 148.514481 133.936264 C 145.622284 133.936264 143.276382 136.153625 143.276382 138.981552 C 143.276382 141.809479 145.622284 144.026825 148.514481 144.026825 Z"/>
</svg>
