<svg width="1437" height="1844" viewBox="0 0 1437 1844" fill="none" xmlns="http://www.w3.org/2000/svg">
<g clip-path="url(#clip0_1_8)">
<mask id="path-1-inside-1_1_8" fill="white">
<path fill-rule="evenodd" clip-rule="evenodd" d="M410 1554C405.577 1554 401.172 1553.93 396.783 1553.79H115.43C79.1061 1553.79 50.7843 1543.63 30.4629 1523.31C10.1415 1502.99 -0.0195312 1474.66 -0.0195312 1438.34V1085.22C-0.0195312 1084.34 -0.0118422 1083.46 -2.49594e-07 1082.59V470.959C-0.0118542 470.091 -0.0195312 469.219 -0.0195312 468.342V115.221C-0.0195312 78.7013 10.1415 50.3291 30.4629 30.1055C50.7843 9.88135 79.1062 -0.228516 115.43 -0.228516H468.551C471.693 -0.228516 474.774 -0.151367 477.797 3.72529e-07H959.184C962.206 -0.151367 965.288 -0.228516 968.43 -0.228516H1321.55C1357.87 -0.228516 1386.2 9.88135 1406.52 30.1055C1426.84 50.3291 1437 78.7013 1437 115.221V410V468.342V1085.22V1144V1438.34C1437 1448.56 1436.2 1458.14 1434.59 1467.09C1434.41 1468.08 1434.22 1469.07 1434.02 1470.05C1432.24 1478.86 1429.65 1487.04 1426.25 1494.58C1425.69 1495.84 1425.1 1497.08 1424.49 1498.3C1423.68 1499.93 1422.82 1501.53 1421.93 1503.09C1421.48 1503.88 1421.03 1504.65 1420.56 1505.42C1420.33 1505.81 1420.09 1506.19 1419.85 1506.57C1419.38 1507.33 1418.89 1508.08 1418.39 1508.82C1417.9 1509.57 1417.39 1510.3 1416.88 1511.03C1413.78 1515.41 1410.33 1519.5 1406.52 1523.31C1404.93 1524.9 1403.29 1526.42 1401.61 1527.88H1401.61C1399.25 1529.93 1396.79 1531.86 1394.24 1533.67H1394.24C1393.51 1534.18 1392.78 1534.69 1392.03 1535.19C1391.29 1535.68 1390.54 1536.17 1389.78 1536.64C1388.64 1537.36 1387.48 1538.05 1386.3 1538.72H1386.3C1384.74 1539.61 1383.14 1540.47 1381.51 1541.28H1381.51C1380.29 1541.89 1379.05 1542.48 1377.79 1543.04C1374.44 1544.55 1370.96 1545.9 1367.36 1547.09H1367.36C1366.46 1547.39 1365.55 1547.68 1364.63 1547.96C1363.72 1548.23 1362.79 1548.5 1361.86 1548.76H1361.86C1361.39 1548.89 1360.92 1549.02 1360.46 1549.14C1348.71 1552.24 1335.74 1553.79 1321.55 1553.79H1040.22C1035.83 1553.93 1031.42 1554 1027 1554H410Z"/>
</mask>
<path d="M396.783 1553.79L398.366 1503.82L397.575 1503.79H396.783V1553.79ZM30.4629 1523.31L65.8183 1487.95L65.8183 1487.95L30.4629 1523.31ZM-2.49594e-07 1082.59L49.9954 1083.27L50 1082.93V1082.59H-2.49594e-07ZM-2.49594e-07 470.959H50V470.618L49.9953 470.276L-2.49594e-07 470.959ZM30.4629 30.1055L65.7329 65.5459L65.7333 65.5455L30.4629 30.1055ZM477.797 3.72529e-07L475.296 49.9374L476.546 50H477.797V3.72529e-07ZM959.184 3.72529e-07V50H960.435L961.685 49.9374L959.184 3.72529e-07ZM1406.52 30.1055L1371.25 65.5455L1371.25 65.546L1406.52 30.1055ZM1434.59 1467.09L1385.38 1458.25L1385.38 1458.25L1434.59 1467.09ZM1434.02 1470.05L1385.02 1460.11L1385.02 1460.12L1434.02 1470.05ZM1426.25 1494.58L1380.66 1474.07L1380.65 1474.07L1426.25 1494.58ZM1424.49 1498.3L1379.76 1475.96L1379.76 1475.96L1424.49 1498.3ZM1421.93 1503.09L1465.37 1527.85L1465.37 1527.85L1421.93 1503.09ZM1420.56 1505.42L1463.29 1531.38L1463.3 1531.38L1420.56 1505.42ZM1419.85 1506.57L1462.22 1533.12L1462.22 1533.12L1419.85 1506.57ZM1418.39 1508.82L1376.79 1481.1L1376.79 1481.1L1418.39 1508.82ZM1416.88 1511.03L1457.69 1539.92L1457.69 1539.92L1416.88 1511.03ZM1401.61 1527.88V1577.88H1420.29L1434.39 1565.64L1401.61 1527.88ZM1401.61 1527.88V1477.88H1382.93L1368.82 1490.13L1401.61 1527.88ZM1394.24 1533.67V1583.67H1410.15L1423.14 1574.48L1394.24 1533.67ZM1394.24 1533.67V1483.67H1378.34L1365.35 1492.86L1394.24 1533.67ZM1392.03 1535.19L1364.3 1493.58L1364.3 1493.58L1392.03 1535.19ZM1389.78 1536.64L1416.33 1579.01L1416.33 1579.01L1389.78 1536.64ZM1386.3 1538.72V1588.72H1399.55L1411.06 1582.16L1386.3 1538.72ZM1386.3 1538.72V1488.72H1373.05L1361.54 1495.28L1386.3 1538.72ZM1381.51 1541.28V1591.28H1393.3L1403.85 1586.01L1381.51 1541.28ZM1381.51 1541.28V1491.28H1369.72L1359.17 1496.55L1381.51 1541.28ZM1377.79 1543.04L1357.28 1497.45L1357.28 1497.45L1377.79 1543.04ZM1367.36 1547.09V1597.09H1375.41L1383.05 1594.57L1367.36 1547.09ZM1367.36 1547.09V1497.09H1359.31L1351.67 1499.62L1367.36 1547.09ZM1364.63 1547.96L1350.13 1500.11L1350.13 1500.11L1364.63 1547.96ZM1361.86 1548.76V1598.76H1368.65L1375.2 1596.95L1361.86 1548.76ZM1361.86 1548.76V1498.76H1355.06L1348.51 1500.57L1361.86 1548.76ZM1360.46 1549.14L1347.69 1500.8L1347.69 1500.8L1360.46 1549.14ZM1040.22 1553.79V1503.79H1039.42L1038.63 1503.82L1040.22 1553.79ZM410 1504C406.105 1504 402.227 1503.94 398.366 1503.82L395.2 1603.77C400.117 1603.92 405.05 1604 410 1604V1504ZM396.783 1503.79H115.43V1603.79H396.783V1503.79ZM115.43 1503.79C88.6845 1503.79 74.4456 1496.58 65.8183 1487.95L-4.89247 1558.66C27.123 1590.68 69.5278 1603.79 115.43 1603.79V1503.79ZM65.8183 1487.95C57.191 1479.33 49.9805 1465.09 49.9805 1438.34H-50.0195C-50.0195 1484.24 -36.908 1526.65 -4.89247 1558.66L65.8183 1487.95ZM49.9805 1438.34V1085.22H-50.0195V1438.34H49.9805ZM49.9805 1085.22C49.9805 1084.63 49.9857 1083.99 49.9954 1083.27L-49.9954 1081.91C-50.0094 1082.94 -50.0195 1084.05 -50.0195 1085.22H49.9805ZM50 1082.59V470.959H-50V1082.59H50ZM49.9953 470.276C49.9856 469.567 49.9805 468.931 49.9805 468.342H-50.0195C-50.0195 469.507 -50.0094 470.615 -49.9953 471.642L49.9953 470.276ZM49.9805 468.342V115.221H-50.0195V468.342H49.9805ZM49.9805 115.221C49.9805 88.1782 57.2444 73.9936 65.7329 65.5459L-4.80712 -5.335C-36.9614 26.6646 -50.0195 69.2243 -50.0195 115.221H49.9805ZM65.7333 65.5455C74.3474 56.9727 88.615 49.7715 115.43 49.7715V-50.2285C69.5974 -50.2285 27.2211 -37.21 -4.80754 -5.33457L65.7333 65.5455ZM115.43 49.7715H468.551V-50.2285H115.43V49.7715ZM468.551 49.7715C470.874 49.7715 473.122 49.8285 475.296 49.9374L480.298 -49.9374C476.427 -50.1313 472.512 -50.2285 468.551 -50.2285V49.7715ZM477.797 50H959.184V-50H477.797V50ZM961.685 49.9374C963.859 49.8285 966.106 49.7715 968.43 49.7715V-50.2285C964.469 -50.2285 960.553 -50.1313 956.683 -49.9374L961.685 49.9374ZM968.43 49.7715H1321.55V-50.2285H968.43V49.7715ZM1321.55 49.7715C1348.37 49.7715 1362.63 56.9727 1371.25 65.5455L1441.79 -5.3346C1409.76 -37.21 1367.38 -50.2285 1321.55 -50.2285V49.7715ZM1371.25 65.546C1379.74 73.9936 1387 88.1782 1387 115.221H1487C1487 69.2244 1473.94 26.6646 1441.79 -5.33503L1371.25 65.546ZM1387 115.221V410H1487V115.221H1387ZM1387 410V468.342H1487V410H1387ZM1387 468.342V1085.22H1487V468.342H1387ZM1387 1085.22V1144H1487V1085.22H1387ZM1387 1144V1438.34H1487V1144H1387ZM1387 1438.34C1387 1445.95 1386.4 1452.55 1385.38 1458.25L1483.8 1475.93C1485.99 1463.73 1487 1451.17 1487 1438.34H1387ZM1385.38 1458.25C1385.25 1458.93 1385.14 1459.55 1385.02 1460.11L1483.03 1479.99C1483.31 1478.6 1483.57 1477.24 1483.8 1475.93L1385.38 1458.25ZM1385.02 1460.12C1383.91 1465.59 1382.4 1470.19 1380.66 1474.07L1471.85 1515.09C1476.9 1503.88 1480.57 1492.13 1483.03 1479.99L1385.02 1460.12ZM1380.65 1474.07C1380.36 1474.71 1380.07 1475.34 1379.76 1475.96L1469.22 1520.63C1470.14 1518.81 1471.01 1516.96 1471.85 1515.09L1380.65 1474.07ZM1379.76 1475.96C1379.35 1476.78 1378.93 1477.57 1378.49 1478.34L1465.37 1527.85C1466.72 1525.49 1468 1523.08 1469.22 1520.63L1379.76 1475.96ZM1378.49 1478.33C1378.26 1478.74 1378.04 1479.12 1377.82 1479.47L1463.3 1531.38C1464.02 1530.19 1464.71 1529.01 1465.37 1527.85L1378.49 1478.33ZM1377.83 1479.46C1377.7 1479.67 1377.59 1479.85 1377.48 1480.02L1462.22 1533.12C1462.6 1532.52 1462.95 1531.94 1463.29 1531.38L1377.83 1479.46ZM1377.49 1480.02C1377.27 1480.36 1377.04 1480.72 1376.79 1481.1L1460 1536.55C1460.74 1535.44 1461.48 1534.3 1462.22 1533.12L1377.49 1480.02ZM1376.79 1481.1C1376.55 1481.45 1376.31 1481.8 1376.07 1482.14L1457.69 1539.92C1458.47 1538.81 1459.24 1537.69 1460 1536.55L1376.79 1481.1ZM1376.07 1482.14C1374.61 1484.2 1372.99 1486.13 1371.16 1487.95L1441.87 1558.66C1447.67 1552.87 1452.95 1546.61 1457.69 1539.92L1376.07 1482.14ZM1371.16 1487.95C1370.39 1488.72 1369.62 1489.45 1368.82 1490.13L1434.39 1565.64C1436.97 1563.4 1439.47 1561.07 1441.87 1558.66L1371.16 1487.95ZM1401.61 1477.88H1401.61V1577.88H1401.61V1477.88ZM1368.82 1490.13C1367.7 1491.11 1366.54 1492.02 1365.35 1492.86L1423.14 1574.48C1427.05 1571.71 1430.8 1568.75 1434.39 1565.64L1368.82 1490.13ZM1394.24 1483.67H1394.24V1583.67H1394.24V1483.67ZM1365.35 1492.86C1365.01 1493.1 1364.66 1493.34 1364.3 1493.58L1419.76 1576.79C1420.9 1576.03 1422.02 1575.26 1423.13 1574.48L1365.35 1492.86ZM1364.3 1493.58C1363.93 1493.83 1363.57 1494.06 1363.22 1494.28L1416.33 1579.01C1417.51 1578.27 1418.65 1577.53 1419.76 1576.79L1364.3 1493.58ZM1363.23 1494.28C1362.68 1494.62 1362.12 1494.95 1361.54 1495.28L1411.06 1582.16C1412.84 1581.15 1414.59 1580.1 1416.33 1579.01L1363.23 1494.28ZM1386.3 1488.72H1386.3V1588.72H1386.3V1488.72ZM1361.54 1495.28C1360.76 1495.73 1359.97 1496.15 1359.17 1496.55L1403.85 1586.01C1406.31 1584.79 1408.71 1583.5 1411.06 1582.16L1361.54 1495.28ZM1381.51 1491.28H1381.51V1591.28H1381.51V1491.28ZM1359.17 1496.55C1358.56 1496.86 1357.92 1497.16 1357.28 1497.45L1398.3 1588.64C1400.17 1587.8 1402.02 1586.93 1403.85 1586.01L1359.17 1496.55ZM1357.28 1497.45C1355.54 1498.23 1353.68 1498.96 1351.67 1499.62L1383.05 1594.57C1388.24 1592.85 1393.33 1590.88 1398.3 1588.64L1357.28 1497.45ZM1367.36 1497.09H1367.36V1597.09H1367.36V1497.09ZM1351.67 1499.62C1351.15 1499.79 1350.64 1499.95 1350.13 1500.11L1379.14 1595.81C1380.46 1595.41 1381.76 1594.99 1383.05 1594.57L1351.67 1499.62ZM1350.13 1500.11C1349.62 1500.26 1349.09 1500.42 1348.52 1500.57L1375.2 1596.95C1376.5 1596.59 1377.81 1596.21 1379.14 1595.81L1350.13 1500.11ZM1361.86 1498.76H1361.86V1598.76H1361.86V1498.76ZM1348.51 1500.57C1348.12 1500.68 1347.88 1500.75 1347.69 1500.8L1373.22 1597.48C1373.97 1597.29 1374.66 1597.1 1375.2 1596.95L1348.51 1500.57ZM1347.69 1500.8C1340.74 1502.63 1332.14 1503.79 1321.55 1503.79V1603.79C1339.34 1603.79 1356.67 1601.85 1373.22 1597.48L1347.69 1500.8ZM1321.55 1503.79H1040.22V1603.79H1321.55V1503.79ZM1038.63 1503.82C1034.77 1503.94 1030.9 1504 1027 1504V1604C1031.95 1604 1036.88 1603.92 1041.8 1603.77L1038.63 1503.82ZM1027 1504H410V1604H1027V1504Z" fill="black" mask="url(#path-1-inside-1_1_8)"/>
<path fill-rule="evenodd" clip-rule="evenodd" d="M376.484 1028.23C373.53 1028.23 370.592 1028.16 367.671 1028.03H250.609C230.91 1028.03 215.551 1022.52 204.53 1011.5C193.51 1000.48 188 985.116 188 965.418V773.917C188 773.267 188.007 772.622 188.019 771.982V433.034C188.007 432.397 188 431.756 188 431.11V239.609C188 219.804 193.51 204.418 204.53 193.45C215.551 182.483 230.91 177 250.609 177H442.11C444.393 177 446.618 177.075 448.785 177.222H989.349C991.427 177.087 993.557 177.019 995.742 177.019H1187.23C1206.93 177.019 1222.29 182.503 1233.31 193.469C1244.33 204.436 1249.84 219.82 1249.84 239.624V365.687V431.113V773.932V839.765V965.422C1249.84 985.119 1244.33 1000.48 1233.31 1011.5C1222.29 1022.52 1206.93 1028.03 1187.23 1028.03H1070.18C1067.26 1028.16 1064.33 1028.23 1061.37 1028.23H376.484Z" stroke="black" stroke-width="50"/>
<path fill-rule="evenodd" clip-rule="evenodd" d="M505.827 526.379C518.907 526.379 529.65 522.175 538.058 513.767C546.466 505.359 550.67 494.429 550.67 480.976V404.745C550.67 391.292 546.466 380.362 538.058 371.954C529.65 363.546 518.907 359.342 505.827 359.342C492.748 359.342 482.005 363.546 473.597 371.954C465.189 380.362 460.985 391.292 460.985 404.745V480.976C460.985 494.429 465.189 505.359 473.597 513.767C482.005 522.175 492.748 526.379 505.827 526.379ZM673.985 658.663C674.733 658.663 675.574 658.663 676.508 658.663C677.442 658.663 678.283 658.663 679.03 658.663C707.43 658.663 729.104 651.189 744.051 636.242C758.999 621.295 766.472 599.621 766.472 571.221V394.655C766.472 383.818 763.203 375.13 756.663 368.591C750.124 362.051 741.249 358.781 730.038 358.781C719.201 358.781 710.42 362.051 703.693 368.591C696.967 375.13 693.604 383.818 693.604 394.655V576.266C693.604 579.255 692.856 581.404 691.362 582.712C689.867 584.02 687.812 584.674 685.196 584.674H665.578C655.488 584.674 646.987 588.13 640.073 595.043C633.16 601.957 629.704 610.458 629.704 620.547C629.704 632.505 633.627 641.847 641.475 648.574C649.322 655.3 660.159 658.663 673.985 658.663ZM930.706 526.379C943.785 526.379 954.529 522.175 962.937 513.767C971.345 505.359 975.548 494.429 975.548 480.976V404.745C975.548 391.292 971.345 380.362 962.937 371.954C954.529 363.546 943.785 359.342 930.706 359.342C917.627 359.342 906.884 363.546 898.476 371.954C890.068 380.362 885.864 391.292 885.864 404.745V480.976C885.864 494.429 890.068 505.359 898.476 513.767C906.884 522.175 917.627 526.379 930.706 526.379ZM716.025 847C749.657 847 782.727 840.18 815.238 826.541C847.749 812.901 876.335 793.75 900.999 769.087C904.362 765.724 906.884 761.8 908.566 757.316C910.247 752.832 911.088 747.787 911.088 742.182C911.088 731.718 907.538 723.03 900.438 716.117C893.338 709.204 884.743 705.747 874.654 705.747C864.564 705.747 854.849 710.792 845.506 720.881C830.185 736.95 811.034 749.935 788.052 759.838C765.071 769.741 741.062 774.692 716.025 774.692C692.483 774.692 669.128 769.834 645.959 760.118C622.791 750.403 603.172 737.324 587.104 720.881C582.62 716.771 578.229 713.221 573.931 710.232C569.634 707.242 564.122 705.747 557.396 705.747C546.933 705.747 538.151 709.204 531.051 716.117C523.951 723.03 520.401 731.718 520.401 742.182C520.401 747.04 521.335 751.617 523.204 755.914C525.072 760.212 527.875 764.416 531.612 768.526C554.033 794.311 581.872 813.835 615.13 827.101C648.388 840.367 682.019 847 716.025 847Z" fill="black"/>
<path d="M121 1529H1317.63V1678C1317.63 1703.2 1317.63 1715.8 1312.73 1725.43C1308.42 1733.9 1301.53 1740.78 1293.06 1745.1C1283.44 1750 1270.84 1750 1245.63 1750H193C167.798 1750 155.196 1750 145.57 1745.1C137.103 1740.78 130.219 1733.9 125.905 1725.43C121 1715.8 121 1703.2 121 1678V1529Z" stroke="black" stroke-width="50"/>
<rect x="172" y="1266" width="149" height="50" rx="25" fill="black"/>
<rect x="891" y="1266" width="374" height="50" rx="25" fill="black"/>
</g>
<defs>
<clipPath id="clip0_1_8">
<rect width="1437" height="1844" fill="white"/>
</clipPath>
</defs>
</svg>
